<svg xmlns="http://www.w3.org/2000/svg" viewBox="0 0 180 420" role="img" aria-labelledby="title desc">
  <title id="title">Stylized map of Vietnam</title>
  <desc id="desc">A simple silhouette of Vietnam drawn with soft curves.</desc>
  <defs>
    <linearGradient id="vietnamGradient" x1="0" x2="0" y1="0" y2="1">
      <stop offset="0%" stop-color="#ff6f61" />
      <stop offset="100%" stop-color="#f44336" />
    </linearGradient>
  </defs>
  <path
    fill="url(#vietnamGradient)"
    d="M80 14c-18 12-32 35-28 62 3 23 21 34 22 52 1 13-7 28-10 44-5 26 12 47 10 72-2 24-24 48-21 66 3 21 25 28 43 40 26 17 49 42 72 62l-2-32-22-44-15-43-34-39-4-38 15-39-13-43 4-41 23-26 10-24C124 43 99 34 80 14Z"
  />
  <circle cx="90" cy="36" r="6" fill="#ffccbc" opacity="0.9" />
  <circle cx="114" cy="132" r="4" fill="#ffccbc" opacity="0.7" />
</svg>
